solid OpenSCAD_Model
  facet normal -0.994522 0.104528 0
    outer loop
      vertex -17 -16 -2
      vertex -17 -16 0
      vertex -16.8907 -14.9604 -2
    endloop
  endfacet
  facet normal -0.994522 0.104528 0
    outer loop
      vertex -16.8907 -14.9604 -2
      vertex -17 -16 0
      vertex -16.8907 -14.9604 0
    endloop
  endfacet
  facet normal -0.994522 -0.104528 0
    outer loop
      vertex -17 -16 -2
      vertex -16.8907 -17.0396 -2
      vertex -17 -16 0
    endloop
  endfacet
  facet normal -0.994522 -0.104528 0
    outer loop
      vertex -17 -16 0
      vertex -16.8907 -17.0396 -2
      vertex -16.8907 -17.0396 0
    endloop
  endfacet
  facet normal 0 0 -1
    outer loop
      vertex -17 -16 -2
      vertex -16.8907 -14.9604 -2
      vertex -16.8907 -17.0396 -2
    endloop
  endfacet
  facet normal 0 0 -1
    outer loop
      vertex -16.8907 -17.0396 -2
      vertex -16.8907 -14.9604 -2
      vertex -16.5677 -13.9663 -2
    endloop
  endfacet
  facet normal 0 0 -1
    outer loop
      vertex -16.8907 -17.0396 -2
      vertex -16.5677 -13.9663 -2
      vertex -16.0451 -13.0611 -2
    endloop
  endfacet
  facet normal 0 0 -1
    outer loop
      vertex -16.8907 -17.0396 -2
      vertex -16.0451 -13.0611 -2
      vertex -15.3457 -12.2843 -2
    endloop
  endfacet
  facet normal 0 0 -1
    outer loop
      vertex -16.8907 -17.0396 -2
      vertex -15.3457 -12.2843 -2
      vertex -14.5 -11.6699 -2
    endloop
  endfacet
  facet normal 0 0 -1
    outer loop
      vertex -16.8907 -17.0396 -2
      vertex -14.5 -11.6699 -2
      vertex -13.5451 -11.2447 -2
    endloop
  endfacet
  facet normal 0 0 -1
    outer loop
      vertex -16.8907 -17.0396 -2
      vertex -13.5451 -11.2447 -2
      vertex -12.5226 -11.0274 -2
    endloop
  endfacet
  facet normal 0 0 -1
    outer loop
      vertex -16.8907 -17.0396 -2
      vertex -12.5226 -11.0274 -2
      vertex -11.4774 -11.0274 -2
    endloop
  endfacet
  facet normal 0 0 -1
    outer loop
      vertex -16.8907 -17.0396 -2
      vertex -11.4774 -11.0274 -2
      vertex -11 -11.1289 -2
    endloop
  endfacet
  facet normal 0 0 -1
    outer loop
      vertex -11 -11.1289 -2
      vertex -11 -11 -2
      vertex 11 -11 -2
    endloop
  endfacet
  facet normal 0 0 -1
    outer loop
      vertex -10.435 -15.6673 -2
      vertex 11 -11 -2
      vertex 11 -11.1289 -2
    endloop
  endfacet
  facet normal 0 0 -1
    outer loop
      vertex 11 -11.1289 -2
      vertex 11.4774 -11.0274 -2
      vertex 12.5226 -11.0274 -2
    endloop
  endfacet
  facet normal 0 0 -1
    outer loop
      vertex -10.4 -16 -2
      vertex 14.5 -11.6699 -2
      vertex 15.3457 -12.2843 -2
    endloop
  endfacet
  facet normal 0 0 -1
    outer loop
      vertex -10.435 -16.3327 -2
      vertex 16.0451 -13.0611 -2
      vertex 16.5677 -13.9663 -2
    endloop
  endfacet
  facet normal 0 0 -1
    outer loop
      vertex 13.2944 -15.0595 -2
      vertex 16.5677 -13.9663 -2
      vertex 16.8907 -14.9604 -2
    endloop
  endfacet
  facet normal 0 0 -1
    outer loop
      vertex 13.565 -15.6673 -2
      vertex 16.8907 -14.9604 -2
      vertex 17 -16 -2
    endloop
  endfacet
  facet normal 0 0 -1
    outer loop
      vertex 13.4617 -16.6508 -2
      vertex 17 -16 -2
      vertex 16.8907 -17.0396 -2
    endloop
  endfacet
  facet normal 0 0 -1
    outer loop
      vertex 12.8 -17.3856 -2
      vertex 16.8907 -17.0396 -2
      vertex 16.5677 -18.0337 -2
    endloop
  endfacet
  facet normal 0 0 -1
    outer loop
      vertex -11.2 -17.3856 -2
      vertex 16.0451 -18.9389 -2
      vertex 15.3457 -19.7157 -2
    endloop
  endfacet
  facet normal 0 0 -1
    outer loop
      vertex -11.5056 -17.5217 -2
      vertex 15.3457 -19.7157 -2
      vertex 14.5 -20.3301 -2
    endloop
  endfacet
  facet normal 0 0 -1
    outer loop
      vertex -11.8328 -17.5912 -2
      vertex 14.5 -20.3301 -2
      vertex 13.5451 -20.7553 -2
    endloop
  endfacet
  facet normal 0 0 -1
    outer loop
      vertex -16.8907 -17.0396 -2
      vertex 13.5451 -20.7553 -2
      vertex 12.5226 -20.9726 -2
    endloop
  endfacet
  facet normal 0 0 -1
    outer loop
      vertex 11 -20.8711 -2
      vertex 12.5226 -20.9726 -2
      vertex 11.4774 -20.9726 -2
    endloop
  endfacet
  facet normal 0 0 -1
    outer loop
      vertex -16.8907 -17.0396 -2
      vertex 12.5226 -20.9726 -2
      vertex 11 -20.8711 -2
    endloop
  endfacet
  facet normal 0 0 -1
    outer loop
      vertex -11.4774 -20.9726 -2
      vertex -16.8907 -17.0396 -2
      vertex -11 -20.8711 -2
    endloop
  endfacet
  facet normal 0 0 -1
    outer loop
      vertex -11 -20.8711 -2
      vertex 11 -21 -2
      vertex -11 -21 -2
    endloop
  endfacet
  facet normal 0 0 -1
    outer loop
      vertex -16.8907 -17.0396 -2
      vertex 11 -21 -2
      vertex -11 -20.8711 -2
    endloop
  endfacet
  facet normal 0 0 -1
    outer loop
      vertex -13.565 -16.3327 -2
      vertex -16.8907 -17.0396 -2
      vertex -13.6 -16 -2
    endloop
  endfacet
  facet normal 0 0 -1
    outer loop
      vertex -16.8907 -17.0396 -2
      vertex -11.4774 -20.9726 -2
      vertex -12.5226 -20.9726 -2
    endloop
  endfacet
  facet normal 0 0 -1
    outer loop
      vertex -16.8907 -17.0396 -2
      vertex -12.5226 -20.9726 -2
      vertex -13.5451 -20.7553 -2
    endloop
  endfacet
  facet normal 0 0 -1
    outer loop
      vertex -16.8907 -17.0396 -2
      vertex -13.5451 -20.7553 -2
      vertex -14.5 -20.3301 -2
    endloop
  endfacet
  facet normal 0 0 -1
    outer loop
      vertex -16.8907 -17.0396 -2
      vertex -14.5 -20.3301 -2
      vertex -15.3457 -19.7157 -2
    endloop
  endfacet
  facet normal 0 0 -1
    outer loop
      vertex -16.8907 -17.0396 -2
      vertex -15.3457 -19.7157 -2
      vertex -16.0451 -18.9389 -2
    endloop
  endfacet
  facet normal 0 0 -1
    outer loop
      vertex -16.8907 -17.0396 -2
      vertex -16.0451 -18.9389 -2
      vertex -16.5677 -18.0337 -2
    endloop
  endfacet
  facet normal 0 0 -1
    outer loop
      vertex -13.0706 -14.811 -2
      vertex -11 -11.1289 -2
      vertex -12.8 -14.6144 -2
    endloop
  endfacet
  facet normal 0 0 -1
    outer loop
      vertex -13.565 -15.6673 -2
      vertex -13.6 -16 -2
      vertex -16.8907 -17.0396 -2
    endloop
  endfacet
  facet normal 0 0 -1
    outer loop
      vertex -13.4617 -16.6508 -2
      vertex -16.8907 -17.0396 -2
      vertex -13.565 -16.3327 -2
    endloop
  endfacet
  facet normal 0 0 -1
    outer loop
      vertex -13.2944 -16.9405 -2
      vertex -16.8907 -17.0396 -2
      vertex -13.4617 -16.6508 -2
    endloop
  endfacet
  facet normal 0 0 -1
    outer loop
      vertex -13.0706 -17.189 -2
      vertex -16.8907 -17.0396 -2
      vertex -13.2944 -16.9405 -2
    endloop
  endfacet
  facet normal 0 0 -1
    outer loop
      vertex -12.8 -17.3856 -2
      vertex -16.8907 -17.0396 -2
      vertex -13.0706 -17.189 -2
    endloop
  endfacet
  facet normal 0 0 -1
    outer loop
      vertex -12.4944 -17.5217 -2
      vertex -16.8907 -17.0396 -2
      vertex -12.8 -17.3856 -2
    endloop
  endfacet
  facet normal 0 0 -1
    outer loop
      vertex -11.8328 -17.5912 -2
      vertex 13.5451 -20.7553 -2
      vertex -12.1672 -17.5912 -2
    endloop
  endfacet
  facet normal 0 0 -1
    outer loop
      vertex -16.8907 -17.0396 -2
      vertex -12.4944 -17.5217 -2
      vertex -12.1672 -17.5912 -2
    endloop
  endfacet
  facet normal 0 0 -1
    outer loop
      vertex -16.8907 -17.0396 -2
      vertex -12.1672 -17.5912 -2
      vertex 13.5451 -20.7553 -2
    endloop
  endfacet
  facet normal 0 0 -1
    outer loop
      vertex -11.5056 -17.5217 -2
      vertex 14.5 -20.3301 -2
      vertex -11.8328 -17.5912 -2
    endloop
  endfacet
  facet normal 0 0 -1
    outer loop
      vertex -10.9294 -17.189 -2
      vertex 16.0451 -18.9389 -2
      vertex -11.2 -17.3856 -2
    endloop
  endfacet
  facet normal 0 0 -1
    outer loop
      vertex -11.2 -17.3856 -2
      vertex 15.3457 -19.7157 -2
      vertex -11.5056 -17.5217 -2
    endloop
  endfacet
  facet normal 0 0 -1
    outer loop
      vertex -10.9294 -17.189 -2
      vertex 16.5677 -18.0337 -2
      vertex 16.0451 -18.9389 -2
    endloop
  endfacet
  facet normal 0 0 -1
    outer loop
      vertex 11.2 -14.6144 -2
      vertex -10.435 -16.3327 -2
      vertex 11.5056 -14.4783 -2
    endloop
  endfacet
  facet normal 0 0 -1
    outer loop
      vertex 10.9294 -17.189 -2
      vertex -10.7056 -16.9405 -2
      vertex 10.7056 -16.9405 -2
    endloop
  endfacet
  facet normal 0 0 -1
    outer loop
      vertex -10.435 -15.6673 -2
      vertex 12.5226 -11.0274 -2
      vertex 13.5451 -11.2447 -2
    endloop
  endfacet
  facet normal 0 0 -1
    outer loop
      vertex -10.4 -16 -2
      vertex 16.0451 -13.0611 -2
      vertex -10.435 -16.3327 -2
    endloop
  endfacet
  facet normal 0 0 -1
    outer loop
      vertex -10.435 -15.6673 -2
      vertex 14.5 -11.6699 -2
      vertex -10.4 -16 -2
    endloop
  endfacet
  facet normal 0 0 -1
    outer loop
      vertex -10.435 -15.6673 -2
      vertex 13.5451 -11.2447 -2
      vertex 14.5 -11.6699 -2
    endloop
  endfacet
  facet normal 0 0 -1
    outer loop
      vertex 13.565 -15.6673 -2
      vertex 17 -16 -2
      vertex 13.6 -16 -2
    endloop
  endfacet
  facet normal 0 0 -1
    outer loop
      vertex -10.5383 -15.3492 -2
      vertex 11 -11 -2
      vertex -10.435 -15.6673 -2
    endloop
  endfacet
  facet normal 0 0 -1
    outer loop
      vertex -11 -11.1289 -2
      vertex 11 -11 -2
      vertex -10.5383 -15.3492 -2
    endloop
  endfacet
  facet normal 0 0 -1
    outer loop
      vertex -11 -11.1289 -2
      vertex -10.5383 -15.3492 -2
      vertex -10.7056 -15.0595 -2
    endloop
  endfacet
  facet normal 0 0 -1
    outer loop
      vertex -11 -11.1289 -2
      vertex -10.7056 -15.0595 -2
      vertex -10.9294 -14.811 -2
    endloop
  endfacet
  facet normal 0 0 -1
    outer loop
      vertex -11 -11.1289 -2
      vertex -10.9294 -14.811 -2
      vertex -11.2 -14.6144 -2
    endloop
  endfacet
  facet normal 0 0 -1
    outer loop
      vertex -11 -11.1289 -2
      vertex -11.2 -14.6144 -2
      vertex -11.5056 -14.4783 -2
    endloop
  endfacet
  facet normal 0 0 -1
    outer loop
      vertex -11 -11.1289 -2
      vertex -11.5056 -14.4783 -2
      vertex -11.8328 -14.4088 -2
    endloop
  endfacet
  facet normal 0 0 -1
    outer loop
      vertex -11 -11.1289 -2
      vertex -11.8328 -14.4088 -2
      vertex -12.1672 -14.4088 -2
    endloop
  endfacet
  facet normal 0 0 -1
    outer loop
      vertex -11 -11.1289 -2
      vertex -12.1672 -14.4088 -2
      vertex -12.4944 -14.4783 -2
    endloop
  endfacet
  facet normal 0 0 -1
    outer loop
      vertex -11 -11.1289 -2
      vertex -12.4944 -14.4783 -2
      vertex -12.8 -14.6144 -2
    endloop
  endfacet
  facet normal 0 0 -1
    outer loop
      vertex 10.435 -16.3327 -2
      vertex -10.5383 -16.6508 -2
      vertex 10.4 -16 -2
    endloop
  endfacet
  facet normal 0 0 -1
    outer loop
      vertex 10.435 -16.3327 -2
      vertex -10.7056 -16.9405 -2
      vertex -10.5383 -16.6508 -2
    endloop
  endfacet
  facet normal 0 0 -1
    outer loop
      vertex -11 -11.1289 -2
      vertex -13.0706 -14.811 -2
      vertex -16.8907 -17.0396 -2
    endloop
  endfacet
  facet normal 0 0 -1
    outer loop
      vertex -13.0706 -14.811 -2
      vertex -13.2944 -15.0595 -2
      vertex -16.8907 -17.0396 -2
    endloop
  endfacet
  facet normal 0 0 -1
    outer loop
      vertex -13.2944 -15.0595 -2
      vertex -13.4617 -15.3492 -2
      vertex -16.8907 -17.0396 -2
    endloop
  endfacet
  facet normal 0 0 -1
    outer loop
      vertex -13.4617 -15.3492 -2
      vertex -13.565 -15.6673 -2
      vertex -16.8907 -17.0396 -2
    endloop
  endfacet
  facet normal 0 0 -1
    outer loop
      vertex 13.2944 -15.0595 -2
      vertex 16.8907 -14.9604 -2
      vertex 13.4617 -15.3492 -2
    endloop
  endfacet
  facet normal 0 0 -1
    outer loop
      vertex 10.9294 -17.189 -2
      vertex -10.9294 -17.189 -2
      vertex -10.7056 -16.9405 -2
    endloop
  endfacet
  facet normal 0 0 -1
    outer loop
      vertex -10.7056 -16.9405 -2
      vertex 10.435 -16.3327 -2
      vertex 10.5383 -16.6508 -2
    endloop
  endfacet
  facet normal 0 0 -1
    outer loop
      vertex -10.7056 -16.9405 -2
      vertex 10.5383 -16.6508 -2
      vertex 10.7056 -16.9405 -2
    endloop
  endfacet
  facet normal 0 0 -1
    outer loop
      vertex 12.4944 -17.5217 -2
      vertex 16.5677 -18.0337 -2
      vertex 12.1672 -17.5912 -2
    endloop
  endfacet
  facet normal 0 0 -1
    outer loop
      vertex -10.9294 -17.189 -2
      vertex 10.9294 -17.189 -2
      vertex 11.2 -17.3856 -2
    endloop
  endfacet
  facet normal 0 0 -1
    outer loop
      vertex -10.9294 -17.189 -2
      vertex 11.2 -17.3856 -2
      vertex 11.5056 -17.5217 -2
    endloop
  endfacet
  facet normal 0 0 -1
    outer loop
      vertex -10.9294 -17.189 -2
      vertex 11.5056 -17.5217 -2
      vertex 11.8328 -17.5912 -2
    endloop
  endfacet
  facet normal 0 0 -1
    outer loop
      vertex -10.9294 -17.189 -2
      vertex 11.8328 -17.5912 -2
      vertex 16.5677 -18.0337 -2
    endloop
  endfacet
  facet normal 0 0 -1
    outer loop
      vertex 11.8328 -17.5912 -2
      vertex 12.1672 -17.5912 -2
      vertex 16.5677 -18.0337 -2
    endloop
  endfacet
  facet normal 0 0 -1
    outer loop
      vertex 12.8 -17.3856 -2
      vertex 16.5677 -18.0337 -2
      vertex 12.4944 -17.5217 -2
    endloop
  endfacet
  facet normal 0 0 -1
    outer loop
      vertex 13.0706 -17.189 -2
      vertex 16.8907 -17.0396 -2
      vertex 12.8 -17.3856 -2
    endloop
  endfacet
  facet normal 0 0 -1
    outer loop
      vertex 13.2944 -16.9405 -2
      vertex 16.8907 -17.0396 -2
      vertex 13.0706 -17.189 -2
    endloop
  endfacet
  facet normal 0 0 -1
    outer loop
      vertex 13.4617 -16.6508 -2
      vertex 16.8907 -17.0396 -2
      vertex 13.2944 -16.9405 -2
    endloop
  endfacet
  facet normal 0 0 -1
    outer loop
      vertex 13.565 -16.3327 -2
      vertex 17 -16 -2
      vertex 13.4617 -16.6508 -2
    endloop
  endfacet
  facet normal 0 0 -1
    outer loop
      vertex 13.6 -16 -2
      vertex 17 -16 -2
      vertex 13.565 -16.3327 -2
    endloop
  endfacet
  facet normal 0 0 -1
    outer loop
      vertex 13.4617 -15.3492 -2
      vertex 16.8907 -14.9604 -2
      vertex 13.565 -15.6673 -2
    endloop
  endfacet
  facet normal 0 0 -1
    outer loop
      vertex 13.0706 -14.811 -2
      vertex 16.5677 -13.9663 -2
      vertex 13.2944 -15.0595 -2
    endloop
  endfacet
  facet normal 0 0 -1
    outer loop
      vertex 11.5056 -14.4783 -2
      vertex -10.435 -16.3327 -2
      vertex 11.8328 -14.4088 -2
    endloop
  endfacet
  facet normal 0 0 -1
    outer loop
      vertex 12.8 -14.6144 -2
      vertex 16.5677 -13.9663 -2
      vertex 13.0706 -14.811 -2
    endloop
  endfacet
  facet normal 0 0 -1
    outer loop
      vertex 12.4944 -14.4783 -2
      vertex 16.5677 -13.9663 -2
      vertex 12.8 -14.6144 -2
    endloop
  endfacet
  facet normal 0 0 -1
    outer loop
      vertex 12.1672 -14.4088 -2
      vertex 16.5677 -13.9663 -2
      vertex 12.4944 -14.4783 -2
    endloop
  endfacet
  facet normal 0 0 -1
    outer loop
      vertex 11.8328 -14.4088 -2
      vertex 16.5677 -13.9663 -2
      vertex 12.1672 -14.4088 -2
    endloop
  endfacet
  facet normal 0 0 -1
    outer loop
      vertex -10.435 -16.3327 -2
      vertex 10.5383 -15.3492 -2
      vertex -10.5383 -16.6508 -2
    endloop
  endfacet
  facet normal 0 0 -1
    outer loop
      vertex 10.435 -15.6673 -2
      vertex -10.5383 -16.6508 -2
      vertex 10.5383 -15.3492 -2
    endloop
  endfacet
  facet normal 0 0 -1
    outer loop
      vertex 10.5383 -15.3492 -2
      vertex -10.435 -16.3327 -2
      vertex 10.7056 -15.0595 -2
    endloop
  endfacet
  facet normal 0 0 -1
    outer loop
      vertex 10.7056 -15.0595 -2
      vertex -10.435 -16.3327 -2
      vertex 10.9294 -14.811 -2
    endloop
  endfacet
  facet normal 0 0 -1
    outer loop
      vertex 10.9294 -14.811 -2
      vertex -10.435 -16.3327 -2
      vertex 11.2 -14.6144 -2
    endloop
  endfacet
  facet normal 0 0 -1
    outer loop
      vertex -10.5383 -16.6508 -2
      vertex 10.435 -15.6673 -2
      vertex 10.4 -16 -2
    endloop
  endfacet
  facet normal 0 0 -1
    outer loop
      vertex 11 -21 -2
      vertex -16.8907 -17.0396 -2
      vertex 11 -20.8711 -2
    endloop
  endfacet
  facet normal 0 0 -1
    outer loop
      vertex -10.4 -16 -2
      vertex 15.3457 -12.2843 -2
      vertex 16.0451 -13.0611 -2
    endloop
  endfacet
  facet normal 0 0 -1
    outer loop
      vertex -10.435 -15.6673 -2
      vertex 11 -11.1289 -2
      vertex 12.5226 -11.0274 -2
    endloop
  endfacet
  facet normal 0 0 -1
    outer loop
      vertex -10.435 -16.3327 -2
      vertex 16.5677 -13.9663 -2
      vertex 11.8328 -14.4088 -2
    endloop
  endfacet
  facet normal -0.951057 0.309017 0
    outer loop
      vertex -16.8907 -14.9604 -2
      vertex -16.8907 -14.9604 0
      vertex -16.5677 -13.9663 -2
    endloop
  endfacet
  facet normal -0.951057 0.309017 0
    outer loop
      vertex -16.5677 -13.9663 -2
      vertex -16.8907 -14.9604 0
      vertex -16.5677 -13.9663 0
    endloop
  endfacet
  facet normal 0 0 1
    outer loop
      vertex -16.8907 -14.9604 0
      vertex -17 -16 0
      vertex -16.8907 -17.0396 0
    endloop
  endfacet
  facet normal 0 0 1
    outer loop
      vertex -16.0451 -18.9389 0
      vertex -16.8907 -14.9604 0
      vertex -16.5677 -18.0337 0
    endloop
  endfacet
  facet normal 0 0 1
    outer loop
      vertex -16.5677 -18.0337 0
      vertex -16.8907 -14.9604 0
      vertex -16.8907 -17.0396 0
    endloop
  endfacet
  facet normal 0 0 1
    outer loop
      vertex -15.3457 -19.7157 0
      vertex -16.8907 -14.9604 0
      vertex -16.0451 -18.9389 0
    endloop
  endfacet
  facet normal 0 0 1
    outer loop
      vertex -14.5 -20.3301 0
      vertex -16.8907 -14.9604 0
      vertex -15.3457 -19.7157 0
    endloop
  endfacet
  facet normal 0 0 1
    outer loop
      vertex -13.5451 -20.7553 0
      vertex -16.8907 -14.9604 0
      vertex -14.5 -20.3301 0
    endloop
  endfacet
  facet normal 0 0 1
    outer loop
      vertex -12.5226 -20.9726 0
      vertex -16.8907 -14.9604 0
      vertex -13.5451 -20.7553 0
    endloop
  endfacet
  facet normal 0 0 1
    outer loop
      vertex -11.4774 -20.9726 0
      vertex -16.8907 -14.9604 0
      vertex -12.5226 -20.9726 0
    endloop
  endfacet
  facet normal 0 0 1
    outer loop
      vertex -11 -20.8711 0
      vertex -16.8907 -14.9604 0
      vertex -11.4774 -20.9726 0
    endloop
  endfacet
  facet normal 0 0 1
    outer loop
      vertex -8 -21 0
      vertex -16.8907 -14.9604 0
      vertex -11 -20.8711 0
    endloop
  endfacet
  facet normal 0 0 1
    outer loop
      vertex -8 -21 0
      vertex -11 -20.8711 0
      vertex -11 -21 0
    endloop
  endfacet
  facet normal 0 0 1
    outer loop
      vertex -12.8 -17.3856 0
      vertex -16.8907 -14.9604 0
      vertex -8 -21 0
    endloop
  endfacet
  facet normal 0 0 1
    outer loop
      vertex -11 -11.1289 0
      vertex -16.8907 -14.9604 0
      vertex -8 -11 0
    endloop
  endfacet
  facet normal 0 0 1
    outer loop
      vertex -11 -11 0
      vertex -11 -11.1289 0
      vertex -8 -11 0
    endloop
  endfacet
  facet normal 0 0 1
    outer loop
      vertex -12.8 -14.6144 0
      vertex -12.4944 -14.4783 0
      vertex -8 -11 0
    endloop
  endfacet
  facet normal 0 0 1
    outer loop
      vertex -12.5226 -11.0274 0
      vertex -16.8907 -14.9604 0
      vertex -11.4774 -11.0274 0
    endloop
  endfacet
  facet normal 0 0 1
    outer loop
      vertex -13.5451 -11.2447 0
      vertex -16.8907 -14.9604 0
      vertex -12.5226 -11.0274 0
    endloop
  endfacet
  facet normal 0 0 1
    outer loop
      vertex -14.5 -11.6699 0
      vertex -16.8907 -14.9604 0
      vertex -13.5451 -11.2447 0
    endloop
  endfacet
  facet normal 0 0 1
    outer loop
      vertex -15.3457 -12.2843 0
      vertex -16.8907 -14.9604 0
      vertex -14.5 -11.6699 0
    endloop
  endfacet
  facet normal 0 0 1
    outer loop
      vertex -16.0451 -13.0611 0
      vertex -16.8907 -14.9604 0
      vertex -15.3457 -12.2843 0
    endloop
  endfacet
  facet normal 0 0 1
    outer loop
      vertex -16.5677 -13.9663 0
      vertex -16.8907 -14.9604 0
      vertex -16.0451 -13.0611 0
    endloop
  endfacet
  facet normal 0 0 1
    outer loop
      vertex -13.6 -16 0
      vertex -16.8907 -14.9604 0
      vertex -13.565 -16.3327 0
    endloop
  endfacet
  facet normal 0 0 1
    outer loop
      vertex -10.5383 -15.3492 0
      vertex -10.435 -15.6673 0
      vertex -8 -21 0
    endloop
  endfacet
  facet normal 0 0 1
    outer loop
      vertex -13.565 -15.6673 0
      vertex -16.8907 -14.9604 0
      vertex -13.6 -16 0
    endloop
  endfacet
  facet normal 0 0 1
    outer loop
      vertex -13.4617 -15.3492 0
      vertex -16.8907 -14.9604 0
      vertex -13.565 -15.6673 0
    endloop
  endfacet
  facet normal 0 0 1
    outer loop
      vertex -13.2944 -15.0595 0
      vertex -16.8907 -14.9604 0
      vertex -13.4617 -15.3492 0
    endloop
  endfacet
  facet normal 0 0 1
    outer loop
      vertex -13.0706 -14.811 0
      vertex -16.8907 -14.9604 0
      vertex -13.2944 -15.0595 0
    endloop
  endfacet
  facet normal 0 0 1
    outer loop
      vertex -8 -11 0
      vertex -16.8907 -14.9604 0
      vertex -13.0706 -14.811 0
    endloop
  endfacet
  facet normal 0 0 1
    outer loop
      vertex -12.4944 -14.4783 0
      vertex -12.1672 -14.4088 0
      vertex -8 -11 0
    endloop
  endfacet
  facet normal 0 0 1
    outer loop
      vertex -8 -11 0
      vertex -13.0706 -14.811 0
      vertex -12.8 -14.6144 0
    endloop
  endfacet
  facet normal 0 0 1
    outer loop
      vertex -12.1672 -14.4088 0
      vertex -11.8328 -14.4088 0
      vertex -8 -11 0
    endloop
  endfacet
  facet normal 0 0 1
    outer loop
      vertex -13.0706 -17.189 0
      vertex -13.2944 -16.9405 0
      vertex -16.8907 -14.9604 0
    endloop
  endfacet
  facet normal 0 0 1
    outer loop
      vertex -11.8328 -17.5912 0
      vertex -12.1672 -17.5912 0
      vertex -8 -21 0
    endloop
  endfacet
  facet normal 0 0 1
    outer loop
      vertex -10.435 -16.3327 0
      vertex -10.5383 -16.6508 0
      vertex -8 -21 0
    endloop
  endfacet
  facet normal 0 0 1
    outer loop
      vertex -8 -11 0
      vertex -11.5056 -14.4783 0
      vertex -11.2 -14.6144 0
    endloop
  endfacet
  facet normal 0 0 1
    outer loop
      vertex -10.4 -16 0
      vertex -10.435 -16.3327 0
      vertex -8 -21 0
    endloop
  endfacet
  facet normal 0 0 1
    outer loop
      vertex -8 -11 0
      vertex -11.2 -14.6144 0
      vertex -10.9294 -14.811 0
    endloop
  endfacet
  facet normal 0 0 1
    outer loop
      vertex -10.435 -15.6673 0
      vertex -10.4 -16 0
      vertex -8 -21 0
    endloop
  endfacet
  facet normal 0 0 1
    outer loop
      vertex -8 -11 0
      vertex -10.9294 -14.811 0
      vertex -10.7056 -15.0595 0
    endloop
  endfacet
  facet normal 0 0 1
    outer loop
      vertex -8 -11 0
      vertex -10.5383 -15.3492 0
      vertex -8 -21 0
    endloop
  endfacet
  facet normal 0 0 1
    outer loop
      vertex -8 -11 0
      vertex -10.7056 -15.0595 0
      vertex -10.5383 -15.3492 0
    endloop
  endfacet
  facet normal 0 0 1
    outer loop
      vertex -10.5383 -16.6508 0
      vertex -10.7056 -16.9405 0
      vertex -8 -21 0
    endloop
  endfacet
  facet normal 0 0 1
    outer loop
      vertex -10.7056 -16.9405 0
      vertex -10.9294 -17.189 0
      vertex -8 -21 0
    endloop
  endfacet
  facet normal 0 0 1
    outer loop
      vertex -10.9294 -17.189 0
      vertex -11.2 -17.3856 0
      vertex -8 -21 0
    endloop
  endfacet
  facet normal 0 0 1
    outer loop
      vertex -11.2 -17.3856 0
      vertex -11.5056 -17.5217 0
      vertex -8 -21 0
    endloop
  endfacet
  facet normal 0 0 1
    outer loop
      vertex -11.5056 -17.5217 0
      vertex -11.8328 -17.5912 0
      vertex -8 -21 0
    endloop
  endfacet
  facet normal 0 0 1
    outer loop
      vertex -12.1672 -17.5912 0
      vertex -12.4944 -17.5217 0
      vertex -8 -21 0
    endloop
  endfacet
  facet normal 0 0 1
    outer loop
      vertex -12.4944 -17.5217 0
      vertex -12.8 -17.3856 0
      vertex -8 -21 0
    endloop
  endfacet
  facet normal 0 0 1
    outer loop
      vertex -13.0706 -17.189 0
      vertex -16.8907 -14.9604 0
      vertex -12.8 -17.3856 0
    endloop
  endfacet
  facet normal 0 0 1
    outer loop
      vertex -13.4617 -16.6508 0
      vertex -16.8907 -14.9604 0
      vertex -13.2944 -16.9405 0
    endloop
  endfacet
  facet normal 0 0 1
    outer loop
      vertex -13.565 -16.3327 0
      vertex -16.8907 -14.9604 0
      vertex -13.4617 -16.6508 0
    endloop
  endfacet
  facet normal 0 0 1
    outer loop
      vertex -11 -11.1289 0
      vertex -11.4774 -11.0274 0
      vertex -16.8907 -14.9604 0
    endloop
  endfacet
  facet normal 0 0 1
    outer loop
      vertex -11.8328 -14.4088 0
      vertex -11.5056 -14.4783 0
      vertex -8 -11 0
    endloop
  endfacet
  facet normal -0.951057 -0.309017 0
    outer loop
      vertex -16.8907 -17.0396 -2
      vertex -16.5677 -18.0337 -2
      vertex -16.8907 -17.0396 0
    endloop
  endfacet
  facet normal -0.951057 -0.309017 0
    outer loop
      vertex -16.8907 -17.0396 0
      vertex -16.5677 -18.0337 -2
      vertex -16.5677 -18.0337 0
    endloop
  endfacet
  facet normal -0.866025 -0.5 0
    outer loop
      vertex -16.5677 -18.0337 -2
      vertex -16.0451 -18.9389 -2
      vertex -16.5677 -18.0337 0
    endloop
  endfacet
  facet normal -0.866025 -0.5 0
    outer loop
      vertex -16.5677 -18.0337 0
      vertex -16.0451 -18.9389 -2
      vertex -16.0451 -18.9389 0
    endloop
  endfacet
  facet normal -0.743145 -0.669131 0
    outer loop
      vertex -16.0451 -18.9389 -2
      vertex -15.3457 -19.7157 -2
      vertex -16.0451 -18.9389 0
    endloop
  endfacet
  facet normal -0.743145 -0.669131 0
    outer loop
      vertex -16.0451 -18.9389 0
      vertex -15.3457 -19.7157 -2
      vertex -15.3457 -19.7157 0
    endloop
  endfacet
  facet normal -0.587785 -0.809017 0
    outer loop
      vertex -15.3457 -19.7157 0
      vertex -15.3457 -19.7157 -2
      vertex -14.5 -20.3301 -2
    endloop
  endfacet
  facet normal -0.587785 -0.809017 0
    outer loop
      vertex -14.5 -20.3301 0
      vertex -15.3457 -19.7157 0
      vertex -14.5 -20.3301 -2
    endloop
  endfacet
  facet normal -0.406737 -0.913545 0
    outer loop
      vertex -14.5 -20.3301 0
      vertex -14.5 -20.3301 -2
      vertex -13.5451 -20.7553 -2
    endloop
  endfacet
  facet normal -0.406737 -0.913545 0
    outer loop
      vertex -13.5451 -20.7553 0
      vertex -14.5 -20.3301 0
      vertex -13.5451 -20.7553 -2
    endloop
  endfacet
  facet normal -0.207912 -0.978148 0
    outer loop
      vertex -13.5451 -20.7553 0
      vertex -13.5451 -20.7553 -2
      vertex -12.5226 -20.9726 -2
    endloop
  endfacet
  facet normal -0.207912 -0.978148 0
    outer loop
      vertex -12.5226 -20.9726 0
      vertex -13.5451 -20.7553 0
      vertex -12.5226 -20.9726 -2
    endloop
  endfacet
  facet normal 0 -1 0
    outer loop
      vertex -12.5226 -20.9726 0
      vertex -12.5226 -20.9726 -2
      vertex -11.4774 -20.9726 -2
    endloop
  endfacet
  facet normal 0 -1 0
    outer loop
      vertex -11.4774 -20.9726 0
      vertex -12.5226 -20.9726 0
      vertex -11.4774 -20.9726 -2
    endloop
  endfacet
  facet normal 0.207912 -0.978148 0
    outer loop
      vertex -11.4774 -20.9726 0
      vertex -11.4774 -20.9726 -2
      vertex -11 -20.8711 -2
    endloop
  endfacet
  facet normal 0.207912 -0.978148 0
    outer loop
      vertex -11 -20.8711 0
      vertex -11.4774 -20.9726 0
      vertex -11 -20.8711 -2
    endloop
  endfacet
  facet normal -1 0 0
    outer loop
      vertex -11 -21 -2
      vertex -11 -21 0
      vertex -11 -20.8711 -2
    endloop
  endfacet
  facet normal -1 0 0
    outer loop
      vertex -11 -20.8711 -2
      vertex -11 -21 0
      vertex -11 -20.8711 0
    endloop
  endfacet
  facet normal 0 -1 0
    outer loop
      vertex -11 -21 0
      vertex -11 -21 -2
      vertex 11 -21 -2
    endloop
  endfacet
  facet normal 0 -1 0
    outer loop
      vertex -8 -21 0
      vertex -11 -21 0
      vertex 11 -21 -2
    endloop
  endfacet
  facet normal 0 -1 0
    outer loop
      vertex 8 -21 0
      vertex 6 -21 0
      vertex 11 -21 -2
    endloop
  endfacet
  facet normal 0 -1 0
    outer loop
      vertex 11 -21 0
      vertex 8 -21 0
      vertex 11 -21 -2
    endloop
  endfacet
  facet normal 0 -1 0
    outer loop
      vertex -6 -21 0
      vertex -8 -21 0
      vertex 11 -21 -2
    endloop
  endfacet
  facet normal 0 -1 0
    outer loop
      vertex 6 -21 0
      vertex -6 -21 0
      vertex 11 -21 -2
    endloop
  endfacet
  facet normal 0 -1 0
    outer loop
      vertex -6 -21 2.5
      vertex 6 -21 2.5
      vertex 8 -21 4.5
    endloop
  endfacet
  facet normal 0 -1 0
    outer loop
      vertex -6 -21 0
      vertex -6 -21 2.5
      vertex -8 -21 0
    endloop
  endfacet
  facet normal 0 -1 0
    outer loop
      vertex 8 -21 4.5
      vertex -8 -21 4.5
      vertex -6 -21 2.5
    endloop
  endfacet
  facet normal 0 -1 0
    outer loop
      vertex 8 -21 4.5
      vertex 6 -21 2.5
      vertex 8 -21 0
    endloop
  endfacet
  facet normal 0 -1 0
    outer loop
      vertex 6 -21 2.5
      vertex 6 -21 0
      vertex 8 -21 0
    endloop
  endfacet
  facet normal 0 -1 0
    outer loop
      vertex -8 -21 4.5
      vertex -8 -21 0
      vertex -6 -21 2.5
    endloop
  endfacet
  facet normal 1 0 0
    outer loop
      vertex 11 -21 0
      vertex 11 -21 -2
      vertex 11 -20.8711 -2
    endloop
  endfacet
  facet normal 1 0 0
    outer loop
      vertex 11 -20.8711 0
      vertex 11 -21 0
      vertex 11 -20.8711 -2
    endloop
  endfacet
  facet normal -0.207912 -0.978148 0
    outer loop
      vertex 11 -20.8711 0
      vertex 11 -20.8711 -2
      vertex 11.4774 -20.9726 -2
    endloop
  endfacet
  facet normal -0.207912 -0.978148 0
    outer loop
      vertex 11.4774 -20.9726 0
      vertex 11 -20.8711 0
      vertex 11.4774 -20.9726 -2
    endloop
  endfacet
  facet normal 0 -1 0
    outer loop
      vertex 11.4774 -20.9726 0
      vertex 11.4774 -20.9726 -2
      vertex 12.5226 -20.9726 -2
    endloop
  endfacet
  facet normal 0 -1 0
    outer loop
      vertex 12.5226 -20.9726 0
      vertex 11.4774 -20.9726 0
      vertex 12.5226 -20.9726 -2
    endloop
  endfacet
  facet normal 0.207912 -0.978148 0
    outer loop
      vertex 12.5226 -20.9726 0
      vertex 12.5226 -20.9726 -2
      vertex 13.5451 -20.7553 -2
    endloop
  endfacet
  facet normal 0.207912 -0.978148 0
    outer loop
      vertex 13.5451 -20.7553 0
      vertex 12.5226 -20.9726 0
      vertex 13.5451 -20.7553 -2
    endloop
  endfacet
  facet normal 0.406737 -0.913545 0
    outer loop
      vertex 13.5451 -20.7553 0
      vertex 13.5451 -20.7553 -2
      vertex 14.5 -20.3301 -2
    endloop
  endfacet
  facet normal 0.406737 -0.913545 0
    outer loop
      vertex 14.5 -20.3301 0
      vertex 13.5451 -20.7553 0
      vertex 14.5 -20.3301 -2
    endloop
  endfacet
  facet normal 0.587785 -0.809017 0
    outer loop
      vertex 14.5 -20.3301 0
      vertex 14.5 -20.3301 -2
      vertex 15.3457 -19.7157 -2
    endloop
  endfacet
  facet normal 0.587785 -0.809017 0
    outer loop
      vertex 15.3457 -19.7157 0
      vertex 14.5 -20.3301 0
      vertex 15.3457 -19.7157 -2
    endloop
  endfacet
  facet normal 0.743145 -0.669131 0
    outer loop
      vertex 15.3457 -19.7157 0
      vertex 15.3457 -19.7157 -2
      vertex 16.0451 -18.9389 -2
    endloop
  endfacet
  facet normal 0.743145 -0.669131 0
    outer loop
      vertex 16.0451 -18.9389 0
      vertex 15.3457 -19.7157 0
      vertex 16.0451 -18.9389 -2
    endloop
  endfacet
  facet normal 0.866025 -0.5 0
    outer loop
      vertex 16.0451 -18.9389 0
      vertex 16.0451 -18.9389 -2
      vertex 16.5677 -18.0337 -2
    endloop
  endfacet
  facet normal 0.866025 -0.5 0
    outer loop
      vertex 16.5677 -18.0337 0
      vertex 16.0451 -18.9389 0
      vertex 16.5677 -18.0337 -2
    endloop
  endfacet
  facet normal 0.951057 -0.309017 0
    outer loop
      vertex 16.5677 -18.0337 0
      vertex 16.5677 -18.0337 -2
      vertex 16.8907 -17.0396 -2
    endloop
  endfacet
  facet normal 0.951057 -0.309017 0
    outer loop
      vertex 16.8907 -17.0396 0
      vertex 16.5677 -18.0337 0
      vertex 16.8907 -17.0396 -2
    endloop
  endfacet
  facet normal 0.994522 -0.104528 0
    outer loop
      vertex 16.8907 -17.0396 0
      vertex 16.8907 -17.0396 -2
      vertex 17 -16 -2
    endloop
  endfacet
  facet normal 0.994522 -0.104528 0
    outer loop
      vertex 17 -16 0
      vertex 16.8907 -17.0396 0
      vertex 17 -16 -2
    endloop
  endfacet
  facet normal 0.994522 0.104528 0
    outer loop
      vertex 17 -16 -2
      vertex 16.8907 -14.9604 -2
      vertex 16.8907 -14.9604 0
    endloop
  endfacet
  facet normal 0.994522 0.104528 0
    outer loop
      vertex 17 -16 0
      vertex 17 -16 -2
      vertex 16.8907 -14.9604 0
    endloop
  endfacet
  facet normal 0.951057 0.309017 0
    outer loop
      vertex 16.8907 -14.9604 -2
      vertex 16.5677 -13.9663 -2
      vertex 16.5677 -13.9663 0
    endloop
  endfacet
  facet normal 0.951057 0.309017 0
    outer loop
      vertex 16.8907 -14.9604 0
      vertex 16.8907 -14.9604 -2
      vertex 16.5677 -13.9663 0
    endloop
  endfacet
  facet normal 0.866025 0.5 0
    outer loop
      vertex 16.5677 -13.9663 -2
      vertex 16.0451 -13.0611 -2
      vertex 16.0451 -13.0611 0
    endloop
  endfacet
  facet normal 0.866025 0.5 0
    outer loop
      vertex 16.5677 -13.9663 0
      vertex 16.5677 -13.9663 -2
      vertex 16.0451 -13.0611 0
    endloop
  endfacet
  facet normal 0.743145 0.669131 0
    outer loop
      vertex 16.0451 -13.0611 -2
      vertex 15.3457 -12.2843 -2
      vertex 15.3457 -12.2843 0
    endloop
  endfacet
  facet normal 0.743145 0.669131 0
    outer loop
      vertex 16.0451 -13.0611 0
      vertex 16.0451 -13.0611 -2
      vertex 15.3457 -12.2843 0
    endloop
  endfacet
  facet normal 0.587785 0.809017 0
    outer loop
      vertex 14.5 -11.6699 -2
      vertex 14.5 -11.6699 0
      vertex 15.3457 -12.2843 -2
    endloop
  endfacet
  facet normal 0.587785 0.809017 0
    outer loop
      vertex 15.3457 -12.2843 -2
      vertex 14.5 -11.6699 0
      vertex 15.3457 -12.2843 0
    endloop
  endfacet
  facet normal 0.406737 0.913545 0
    outer loop
      vertex 13.5451 -11.2447 -2
      vertex 13.5451 -11.2447 0
      vertex 14.5 -11.6699 -2
    endloop
  endfacet
  facet normal 0.406737 0.913545 0
    outer loop
      vertex 14.5 -11.6699 -2
      vertex 13.5451 -11.2447 0
      vertex 14.5 -11.6699 0
    endloop
  endfacet
  facet normal 0.207912 0.978148 0
    outer loop
      vertex 12.5226 -11.0274 -2
      vertex 12.5226 -11.0274 0
      vertex 13.5451 -11.2447 -2
    endloop
  endfacet
  facet normal 0.207912 0.978148 0
    outer loop
      vertex 13.5451 -11.2447 -2
      vertex 12.5226 -11.0274 0
      vertex 13.5451 -11.2447 0
    endloop
  endfacet
  facet normal 0 1 0
    outer loop
      vertex 11.4774 -11.0274 -2
      vertex 11.4774 -11.0274 0
      vertex 12.5226 -11.0274 -2
    endloop
  endfacet
  facet normal 0 1 0
    outer loop
      vertex 12.5226 -11.0274 -2
      vertex 11.4774 -11.0274 0
      vertex 12.5226 -11.0274 0
    endloop
  endfacet
  facet normal -0.207912 0.978148 0
    outer loop
      vertex 11 -11.1289 -2
      vertex 11 -11.1289 0
      vertex 11.4774 -11.0274 -2
    endloop
  endfacet
  facet normal -0.207912 0.978148 0
    outer loop
      vertex 11.4774 -11.0274 -2
      vertex 11 -11.1289 0
      vertex 11.4774 -11.0274 0
    endloop
  endfacet
  facet normal 1 0 0
    outer loop
      vertex 11 -11.1289 0
      vertex 11 -11.1289 -2
      vertex 11 -11 -2
    endloop
  endfacet
  facet normal 1 0 0
    outer loop
      vertex 11 -11 0
      vertex 11 -11.1289 0
      vertex 11 -11 -2
    endloop
  endfacet
  facet normal 0 1 0
    outer loop
      vertex -11 -11 -2
      vertex -11 -11 0
      vertex 11 -11 -2
    endloop
  endfacet
  facet normal 0 1 0
    outer loop
      vertex 11 -11 -2
      vertex -11 -11 0
      vertex -8 -11 0
    endloop
  endfacet
  facet normal 0 1 0
    outer loop
      vertex -6 -11 2.5
      vertex -8 -11 0
      vertex -8 -11 4.5
    endloop
  endfacet
  facet normal 0 1 0
    outer loop
      vertex 6 -11 2.5
      vertex -8 -11 4.5
      vertex 8 -11 4.5
    endloop
  endfacet
  facet normal 0 1 0
    outer loop
      vertex 6 -11 2.5
      vertex 8 -11 0
      vertex 6 -11 0
    endloop
  endfacet
  facet normal 0 1 0
    outer loop
      vertex -6 -11 2.5
      vertex -8 -11 4.5
      vertex 6 -11 2.5
    endloop
  endfacet
  facet normal 0 1 0
    outer loop
      vertex -6 -11 0
      vertex -8 -11 0
      vertex -6 -11 2.5
    endloop
  endfacet
  facet normal 0 1 0
    outer loop
      vertex 6 -11 0
      vertex 11 -11 -2
      vertex -6 -11 0
    endloop
  endfacet
  facet normal 0 1 0
    outer loop
      vertex 11 -11 -2
      vertex -8 -11 0
      vertex -6 -11 0
    endloop
  endfacet
  facet normal 0 1 0
    outer loop
      vertex 11 -11 -2
      vertex 6 -11 0
      vertex 8 -11 0
    endloop
  endfacet
  facet normal 0 1 0
    outer loop
      vertex 8 -11 0
      vertex 6 -11 2.5
      vertex 8 -11 4.5
    endloop
  endfacet
  facet normal 0 1 0
    outer loop
      vertex 11 -11 0
      vertex 11 -11 -2
      vertex 8 -11 0
    endloop
  endfacet
  facet normal -1 0 0
    outer loop
      vertex -11 -11.1289 -2
      vertex -11 -11.1289 0
      vertex -11 -11 -2
    endloop
  endfacet
  facet normal -1 0 0
    outer loop
      vertex -11 -11 -2
      vertex -11 -11.1289 0
      vertex -11 -11 0
    endloop
  endfacet
  facet normal 0.207912 0.978148 0
    outer loop
      vertex -11.4774 -11.0274 -2
      vertex -11.4774 -11.0274 0
      vertex -11 -11.1289 -2
    endloop
  endfacet
  facet normal 0.207912 0.978148 0
    outer loop
      vertex -11 -11.1289 -2
      vertex -11.4774 -11.0274 0
      vertex -11 -11.1289 0
    endloop
  endfacet
  facet normal 0 1 0
    outer loop
      vertex -12.5226 -11.0274 -2
      vertex -12.5226 -11.0274 0
      vertex -11.4774 -11.0274 -2
    endloop
  endfacet
  facet normal 0 1 0
    outer loop
      vertex -11.4774 -11.0274 -2
      vertex -12.5226 -11.0274 0
      vertex -11.4774 -11.0274 0
    endloop
  endfacet
  facet normal -0.207912 0.978148 0
    outer loop
      vertex -13.5451 -11.2447 -2
      vertex -13.5451 -11.2447 0
      vertex -12.5226 -11.0274 -2
    endloop
  endfacet
  facet normal -0.207912 0.978148 0
    outer loop
      vertex -12.5226 -11.0274 -2
      vertex -13.5451 -11.2447 0
      vertex -12.5226 -11.0274 0
    endloop
  endfacet
  facet normal -0.406737 0.913545 0
    outer loop
      vertex -14.5 -11.6699 -2
      vertex -14.5 -11.6699 0
      vertex -13.5451 -11.2447 -2
    endloop
  endfacet
  facet normal -0.406737 0.913545 0
    outer loop
      vertex -13.5451 -11.2447 -2
      vertex -14.5 -11.6699 0
      vertex -13.5451 -11.2447 0
    endloop
  endfacet
  facet normal -0.587785 0.809017 0
    outer loop
      vertex -15.3457 -12.2843 -2
      vertex -15.3457 -12.2843 0
      vertex -14.5 -11.6699 -2
    endloop
  endfacet
  facet normal -0.587785 0.809017 0
    outer loop
      vertex -14.5 -11.6699 -2
      vertex -15.3457 -12.2843 0
      vertex -14.5 -11.6699 0
    endloop
  endfacet
  facet normal -0.743145 0.669131 0
    outer loop
      vertex -16.0451 -13.0611 -2
      vertex -16.0451 -13.0611 0
      vertex -15.3457 -12.2843 -2
    endloop
  endfacet
  facet normal -0.743145 0.669131 0
    outer loop
      vertex -15.3457 -12.2843 -2
      vertex -16.0451 -13.0611 0
      vertex -15.3457 -12.2843 0
    endloop
  endfacet
  facet normal -0.866025 0.5 0
    outer loop
      vertex -16.5677 -13.9663 -2
      vertex -16.5677 -13.9663 0
      vertex -16.0451 -13.0611 -2
    endloop
  endfacet
  facet normal -0.866025 0.5 0
    outer loop
      vertex -16.0451 -13.0611 -2
      vertex -16.5677 -13.9663 0
      vertex -16.0451 -13.0611 0
    endloop
  endfacet
  facet normal 0.994522 0.104528 0
    outer loop
      vertex -13.6 -16 0
      vertex -13.565 -16.3327 0
      vertex -13.565 -16.3327 -2
    endloop
  endfacet
  facet normal 0.994522 0.104528 0
    outer loop
      vertex -13.6 -16 -2
      vertex -13.6 -16 0
      vertex -13.565 -16.3327 -2
    endloop
  endfacet
  facet normal 0.994522 -0.104528 0
    outer loop
      vertex -13.565 -15.6673 -2
      vertex -13.565 -15.6673 0
      vertex -13.6 -16 0
    endloop
  endfacet
  facet normal 0.994522 -0.104528 0
    outer loop
      vertex -13.6 -16 -2
      vertex -13.565 -15.6673 -2
      vertex -13.6 -16 0
    endloop
  endfacet
  facet normal 0.951057 -0.309017 0
    outer loop
      vertex -13.4617 -15.3492 -2
      vertex -13.4617 -15.3492 0
      vertex -13.565 -15.6673 0
    endloop
  endfacet
  facet normal 0.951057 -0.309017 0
    outer loop
      vertex -13.565 -15.6673 -2
      vertex -13.4617 -15.3492 -2
      vertex -13.565 -15.6673 0
    endloop
  endfacet
  facet normal 0.866025 -0.5 0
    outer loop
      vertex -13.2944 -15.0595 -2
      vertex -13.2944 -15.0595 0
      vertex -13.4617 -15.3492 0
    endloop
  endfacet
  facet normal 0.866025 -0.5 0
    outer loop
      vertex -13.4617 -15.3492 -2
      vertex -13.2944 -15.0595 -2
      vertex -13.4617 -15.3492 0
    endloop
  endfacet
  facet normal 0.743145 -0.669131 0
    outer loop
      vertex -13.0706 -14.811 -2
      vertex -13.0706 -14.811 0
      vertex -13.2944 -15.0595 0
    endloop
  endfacet
  facet normal 0.743145 -0.669131 0
    outer loop
      vertex -13.2944 -15.0595 -2
      vertex -13.0706 -14.811 -2
      vertex -13.2944 -15.0595 0
    endloop
  endfacet
  facet normal 0.587785 -0.809017 0
    outer loop
      vertex -12.8 -14.6144 -2
      vertex -12.8 -14.6144 0
      vertex -13.0706 -14.811 0
    endloop
  endfacet
  facet normal 0.587785 -0.809017 0
    outer loop
      vertex -13.0706 -14.811 -2
      vertex -12.8 -14.6144 -2
      vertex -13.0706 -14.811 0
    endloop
  endfacet
  facet normal 0.406737 -0.913545 0
    outer loop
      vertex -12.4944 -14.4783 -2
      vertex -12.4944 -14.4783 0
      vertex -12.8 -14.6144 0
    endloop
  endfacet
  facet normal 0.406737 -0.913545 0
    outer loop
      vertex -12.8 -14.6144 -2
      vertex -12.4944 -14.4783 -2
      vertex -12.8 -14.6144 0
    endloop
  endfacet
  facet normal 0.207912 -0.978148 0
    outer loop
      vertex -12.1672 -14.4088 -2
      vertex -12.1672 -14.4088 0
      vertex -12.4944 -14.4783 0
    endloop
  endfacet
  facet normal 0.207912 -0.978148 0
    outer loop
      vertex -12.4944 -14.4783 -2
      vertex -12.1672 -14.4088 -2
      vertex -12.4944 -14.4783 0
    endloop
  endfacet
  facet normal 0 -1 0
    outer loop
      vertex -11.8328 -14.4088 -2
      vertex -11.8328 -14.4088 0
      vertex -12.1672 -14.4088 0
    endloop
  endfacet
  facet normal 0 -1 0
    outer loop
      vertex -12.1672 -14.4088 -2
      vertex -11.8328 -14.4088 -2
      vertex -12.1672 -14.4088 0
    endloop
  endfacet
  facet normal -0.207912 -0.978148 0
    outer loop
      vertex -11.5056 -14.4783 -2
      vertex -11.5056 -14.4783 0
      vertex -11.8328 -14.4088 0
    endloop
  endfacet
  facet normal -0.207912 -0.978148 0
    outer loop
      vertex -11.8328 -14.4088 -2
      vertex -11.5056 -14.4783 -2
      vertex -11.8328 -14.4088 0
    endloop
  endfacet
  facet normal -0.406737 -0.913545 0
    outer loop
      vertex -11.2 -14.6144 -2
      vertex -11.2 -14.6144 0
      vertex -11.5056 -14.4783 0
    endloop
  endfacet
  facet normal -0.406737 -0.913545 0
    outer loop
      vertex -11.5056 -14.4783 -2
      vertex -11.2 -14.6144 -2
      vertex -11.5056 -14.4783 0
    endloop
  endfacet
  facet normal -0.587785 -0.809017 0
    outer loop
      vertex -10.9294 -14.811 -2
      vertex -10.9294 -14.811 0
      vertex -11.2 -14.6144 0
    endloop
  endfacet
  facet normal -0.587785 -0.809017 0
    outer loop
      vertex -11.2 -14.6144 -2
      vertex -10.9294 -14.811 -2
      vertex -11.2 -14.6144 0
    endloop
  endfacet
  facet normal -0.743145 -0.669131 0
    outer loop
      vertex -10.7056 -15.0595 0
      vertex -10.9294 -14.811 0
      vertex -10.7056 -15.0595 -2
    endloop
  endfacet
  facet normal -0.743145 -0.669131 0
    outer loop
      vertex -10.7056 -15.0595 -2
      vertex -10.9294 -14.811 0
      vertex -10.9294 -14.811 -2
    endloop
  endfacet
  facet normal -0.866025 -0.5 0
    outer loop
      vertex -10.5383 -15.3492 0
      vertex -10.7056 -15.0595 0
      vertex -10.5383 -15.3492 -2
    endloop
  endfacet
  facet normal -0.866025 -0.5 0
    outer loop
      vertex -10.5383 -15.3492 -2
      vertex -10.7056 -15.0595 0
      vertex -10.7056 -15.0595 -2
    endloop
  endfacet
  facet normal -0.951057 -0.309017 0
    outer loop
      vertex -10.435 -15.6673 0
      vertex -10.5383 -15.3492 0
      vertex -10.435 -15.6673 -2
    endloop
  endfacet
  facet normal -0.951057 -0.309017 0
    outer loop
      vertex -10.435 -15.6673 -2
      vertex -10.5383 -15.3492 0
      vertex -10.5383 -15.3492 -2
    endloop
  endfacet
  facet normal -0.994522 -0.104528 0
    outer loop
      vertex -10.4 -16 0
      vertex -10.435 -15.6673 0
      vertex -10.4 -16 -2
    endloop
  endfacet
  facet normal -0.994522 -0.104528 0
    outer loop
      vertex -10.4 -16 -2
      vertex -10.435 -15.6673 0
      vertex -10.435 -15.6673 -2
    endloop
  endfacet
  facet normal -0.994522 0.104528 0
    outer loop
      vertex -10.4 -16 0
      vertex -10.4 -16 -2
      vertex -10.435 -16.3327 0
    endloop
  endfacet
  facet normal -0.994522 0.104528 0
    outer loop
      vertex -10.435 -16.3327 0
      vertex -10.4 -16 -2
      vertex -10.435 -16.3327 -2
    endloop
  endfacet
  facet normal -0.951057 0.309017 0
    outer loop
      vertex -10.435 -16.3327 0
      vertex -10.435 -16.3327 -2
      vertex -10.5383 -16.6508 0
    endloop
  endfacet
  facet normal -0.951057 0.309017 0
    outer loop
      vertex -10.5383 -16.6508 0
      vertex -10.435 -16.3327 -2
      vertex -10.5383 -16.6508 -2
    endloop
  endfacet
  facet normal -0.866025 0.5 0
    outer loop
      vertex -10.5383 -16.6508 0
      vertex -10.5383 -16.6508 -2
      vertex -10.7056 -16.9405 0
    endloop
  endfacet
  facet normal -0.866025 0.5 0
    outer loop
      vertex -10.7056 -16.9405 0
      vertex -10.5383 -16.6508 -2
      vertex -10.7056 -16.9405 -2
    endloop
  endfacet
  facet normal -0.743145 0.669131 0
    outer loop
      vertex -10.7056 -16.9405 0
      vertex -10.7056 -16.9405 -2
      vertex -10.9294 -17.189 0
    endloop
  endfacet
  facet normal -0.743145 0.669131 0
    outer loop
      vertex -10.9294 -17.189 0
      vertex -10.7056 -16.9405 -2
      vertex -10.9294 -17.189 -2
    endloop
  endfacet
  facet normal -0.587785 0.809017 0
    outer loop
      vertex -10.9294 -17.189 0
      vertex -10.9294 -17.189 -2
      vertex -11.2 -17.3856 0
    endloop
  endfacet
  facet normal -0.587785 0.809017 0
    outer loop
      vertex -11.2 -17.3856 0
      vertex -10.9294 -17.189 -2
      vertex -11.2 -17.3856 -2
    endloop
  endfacet
  facet normal -0.406737 0.913545 0
    outer loop
      vertex -11.2 -17.3856 0
      vertex -11.2 -17.3856 -2
      vertex -11.5056 -17.5217 0
    endloop
  endfacet
  facet normal -0.406737 0.913545 0
    outer loop
      vertex -11.5056 -17.5217 0
      vertex -11.2 -17.3856 -2
      vertex -11.5056 -17.5217 -2
    endloop
  endfacet
  facet normal -0.207912 0.978148 0
    outer loop
      vertex -11.5056 -17.5217 0
      vertex -11.5056 -17.5217 -2
      vertex -11.8328 -17.5912 0
    endloop
  endfacet
  facet normal -0.207912 0.978148 0
    outer loop
      vertex -11.8328 -17.5912 0
      vertex -11.5056 -17.5217 -2
      vertex -11.8328 -17.5912 -2
    endloop
  endfacet
  facet normal 0 1 0
    outer loop
      vertex -11.8328 -17.5912 0
      vertex -11.8328 -17.5912 -2
      vertex -12.1672 -17.5912 0
    endloop
  endfacet
  facet normal 0 1 0
    outer loop
      vertex -12.1672 -17.5912 0
      vertex -11.8328 -17.5912 -2
      vertex -12.1672 -17.5912 -2
    endloop
  endfacet
  facet normal 0.207912 0.978148 0
    outer loop
      vertex -12.1672 -17.5912 0
      vertex -12.1672 -17.5912 -2
      vertex -12.4944 -17.5217 0
    endloop
  endfacet
  facet normal 0.207912 0.978148 0
    outer loop
      vertex -12.4944 -17.5217 0
      vertex -12.1672 -17.5912 -2
      vertex -12.4944 -17.5217 -2
    endloop
  endfacet
  facet normal 0.406737 0.913545 0
    outer loop
      vertex -12.4944 -17.5217 0
      vertex -12.4944 -17.5217 -2
      vertex -12.8 -17.3856 0
    endloop
  endfacet
  facet normal 0.406737 0.913545 0
    outer loop
      vertex -12.8 -17.3856 0
      vertex -12.4944 -17.5217 -2
      vertex -12.8 -17.3856 -2
    endloop
  endfacet
  facet normal 0.587785 0.809017 0
    outer loop
      vertex -12.8 -17.3856 0
      vertex -12.8 -17.3856 -2
      vertex -13.0706 -17.189 0
    endloop
  endfacet
  facet normal 0.587785 0.809017 0
    outer loop
      vertex -13.0706 -17.189 0
      vertex -12.8 -17.3856 -2
      vertex -13.0706 -17.189 -2
    endloop
  endfacet
  facet normal 0.743145 0.669131 0
    outer loop
      vertex -13.2944 -16.9405 0
      vertex -13.0706 -17.189 0
      vertex -13.0706 -17.189 -2
    endloop
  endfacet
  facet normal 0.743145 0.669131 0
    outer loop
      vertex -13.2944 -16.9405 -2
      vertex -13.2944 -16.9405 0
      vertex -13.0706 -17.189 -2
    endloop
  endfacet
  facet normal 0.866025 0.5 0
    outer loop
      vertex -13.4617 -16.6508 0
      vertex -13.2944 -16.9405 0
      vertex -13.2944 -16.9405 -2
    endloop
  endfacet
  facet normal 0.866025 0.5 0
    outer loop
      vertex -13.4617 -16.6508 -2
      vertex -13.4617 -16.6508 0
      vertex -13.2944 -16.9405 -2
    endloop
  endfacet
  facet normal 0.951057 0.309017 0
    outer loop
      vertex -13.565 -16.3327 0
      vertex -13.4617 -16.6508 0
      vertex -13.4617 -16.6508 -2
    endloop
  endfacet
  facet normal 0.951057 0.309017 0
    outer loop
      vertex -13.565 -16.3327 -2
      vertex -13.565 -16.3327 0
      vertex -13.4617 -16.6508 -2
    endloop
  endfacet
  facet normal 0.994522 0.104528 0
    outer loop
      vertex 10.4 -16 0
      vertex 10.435 -16.3327 0
      vertex 10.435 -16.3327 -2
    endloop
  endfacet
  facet normal 0.994522 0.104528 0
    outer loop
      vertex 10.4 -16 -2
      vertex 10.4 -16 0
      vertex 10.435 -16.3327 -2
    endloop
  endfacet
  facet normal 0.994522 -0.104528 0
    outer loop
      vertex 10.435 -15.6673 -2
      vertex 10.435 -15.6673 0
      vertex 10.4 -16 0
    endloop
  endfacet
  facet normal 0.994522 -0.104528 0
    outer loop
      vertex 10.4 -16 -2
      vertex 10.435 -15.6673 -2
      vertex 10.4 -16 0
    endloop
  endfacet
  facet normal 0.951057 -0.309017 0
    outer loop
      vertex 10.5383 -15.3492 -2
      vertex 10.5383 -15.3492 0
      vertex 10.435 -15.6673 0
    endloop
  endfacet
  facet normal 0.951057 -0.309017 0
    outer loop
      vertex 10.435 -15.6673 -2
      vertex 10.5383 -15.3492 -2
      vertex 10.435 -15.6673 0
    endloop
  endfacet
  facet normal 0.866025 -0.5 0
    outer loop
      vertex 10.7056 -15.0595 -2
      vertex 10.7056 -15.0595 0
      vertex 10.5383 -15.3492 0
    endloop
  endfacet
  facet normal 0.866025 -0.5 0
    outer loop
      vertex 10.5383 -15.3492 -2
      vertex 10.7056 -15.0595 -2
      vertex 10.5383 -15.3492 0
    endloop
  endfacet
  facet normal 0.743145 -0.669131 0
    outer loop
      vertex 10.9294 -14.811 -2
      vertex 10.9294 -14.811 0
      vertex 10.7056 -15.0595 0
    endloop
  endfacet
  facet normal 0.743145 -0.669131 0
    outer loop
      vertex 10.7056 -15.0595 -2
      vertex 10.9294 -14.811 -2
      vertex 10.7056 -15.0595 0
    endloop
  endfacet
  facet normal 0.587785 -0.809017 0
    outer loop
      vertex 11.2 -14.6144 -2
      vertex 11.2 -14.6144 0
      vertex 10.9294 -14.811 0
    endloop
  endfacet
  facet normal 0.587785 -0.809017 0
    outer loop
      vertex 10.9294 -14.811 -2
      vertex 11.2 -14.6144 -2
      vertex 10.9294 -14.811 0
    endloop
  endfacet
  facet normal 0.406737 -0.913545 0
    outer loop
      vertex 11.5056 -14.4783 -2
      vertex 11.5056 -14.4783 0
      vertex 11.2 -14.6144 0
    endloop
  endfacet
  facet normal 0.406737 -0.913545 0
    outer loop
      vertex 11.2 -14.6144 -2
      vertex 11.5056 -14.4783 -2
      vertex 11.2 -14.6144 0
    endloop
  endfacet
  facet normal 0.207912 -0.978148 0
    outer loop
      vertex 11.8328 -14.4088 -2
      vertex 11.8328 -14.4088 0
      vertex 11.5056 -14.4783 0
    endloop
  endfacet
  facet normal 0.207912 -0.978148 0
    outer loop
      vertex 11.5056 -14.4783 -2
      vertex 11.8328 -14.4088 -2
      vertex 11.5056 -14.4783 0
    endloop
  endfacet
  facet normal 0 -1 0
    outer loop
      vertex 12.1672 -14.4088 -2
      vertex 12.1672 -14.4088 0
      vertex 11.8328 -14.4088 0
    endloop
  endfacet
  facet normal 0 -1 0
    outer loop
      vertex 11.8328 -14.4088 -2
      vertex 12.1672 -14.4088 -2
      vertex 11.8328 -14.4088 0
    endloop
  endfacet
  facet normal -0.207912 -0.978148 0
    outer loop
      vertex 12.4944 -14.4783 -2
      vertex 12.4944 -14.4783 0
      vertex 12.1672 -14.4088 0
    endloop
  endfacet
  facet normal -0.207912 -0.978148 0
    outer loop
      vertex 12.1672 -14.4088 -2
      vertex 12.4944 -14.4783 -2
      vertex 12.1672 -14.4088 0
    endloop
  endfacet
  facet normal -0.406737 -0.913545 0
    outer loop
      vertex 12.8 -14.6144 -2
      vertex 12.8 -14.6144 0
      vertex 12.4944 -14.4783 0
    endloop
  endfacet
  facet normal -0.406737 -0.913545 0
    outer loop
      vertex 12.4944 -14.4783 -2
      vertex 12.8 -14.6144 -2
      vertex 12.4944 -14.4783 0
    endloop
  endfacet
  facet normal -0.587785 -0.809017 0
    outer loop
      vertex 13.0706 -14.811 -2
      vertex 13.0706 -14.811 0
      vertex 12.8 -14.6144 0
    endloop
  endfacet
  facet normal -0.587785 -0.809017 0
    outer loop
      vertex 12.8 -14.6144 -2
      vertex 13.0706 -14.811 -2
      vertex 12.8 -14.6144 0
    endloop
  endfacet
  facet normal -0.743145 -0.669131 0
    outer loop
      vertex 13.2944 -15.0595 0
      vertex 13.0706 -14.811 0
      vertex 13.2944 -15.0595 -2
    endloop
  endfacet
  facet normal -0.743145 -0.669131 0
    outer loop
      vertex 13.2944 -15.0595 -2
      vertex 13.0706 -14.811 0
      vertex 13.0706 -14.811 -2
    endloop
  endfacet
  facet normal -0.866025 -0.5 0
    outer loop
      vertex 13.4617 -15.3492 0
      vertex 13.2944 -15.0595 0
      vertex 13.4617 -15.3492 -2
    endloop
  endfacet
  facet normal -0.866025 -0.5 0
    outer loop
      vertex 13.4617 -15.3492 -2
      vertex 13.2944 -15.0595 0
      vertex 13.2944 -15.0595 -2
    endloop
  endfacet
  facet normal -0.951057 -0.309017 0
    outer loop
      vertex 13.565 -15.6673 0
      vertex 13.4617 -15.3492 0
      vertex 13.565 -15.6673 -2
    endloop
  endfacet
  facet normal -0.951057 -0.309017 0
    outer loop
      vertex 13.565 -15.6673 -2
      vertex 13.4617 -15.3492 0
      vertex 13.4617 -15.3492 -2
    endloop
  endfacet
  facet normal -0.994522 -0.104528 0
    outer loop
      vertex 13.6 -16 0
      vertex 13.565 -15.6673 0
      vertex 13.6 -16 -2
    endloop
  endfacet
  facet normal -0.994522 -0.104528 0
    outer loop
      vertex 13.6 -16 -2
      vertex 13.565 -15.6673 0
      vertex 13.565 -15.6673 -2
    endloop
  endfacet
  facet normal -0.994522 0.104528 0
    outer loop
      vertex 13.6 -16 0
      vertex 13.6 -16 -2
      vertex 13.565 -16.3327 0
    endloop
  endfacet
  facet normal -0.994522 0.104528 0
    outer loop
      vertex 13.565 -16.3327 0
      vertex 13.6 -16 -2
      vertex 13.565 -16.3327 -2
    endloop
  endfacet
  facet normal -0.951057 0.309017 0
    outer loop
      vertex 13.565 -16.3327 0
      vertex 13.565 -16.3327 -2
      vertex 13.4617 -16.6508 0
    endloop
  endfacet
  facet normal -0.951057 0.309017 0
    outer loop
      vertex 13.4617 -16.6508 0
      vertex 13.565 -16.3327 -2
      vertex 13.4617 -16.6508 -2
    endloop
  endfacet
  facet normal -0.866025 0.5 0
    outer loop
      vertex 13.4617 -16.6508 0
      vertex 13.4617 -16.6508 -2
      vertex 13.2944 -16.9405 0
    endloop
  endfacet
  facet normal -0.866025 0.5 0
    outer loop
      vertex 13.2944 -16.9405 0
      vertex 13.4617 -16.6508 -2
      vertex 13.2944 -16.9405 -2
    endloop
  endfacet
  facet normal -0.743145 0.669131 0
    outer loop
      vertex 13.2944 -16.9405 0
      vertex 13.2944 -16.9405 -2
      vertex 13.0706 -17.189 0
    endloop
  endfacet
  facet normal -0.743145 0.669131 0
    outer loop
      vertex 13.0706 -17.189 0
      vertex 13.2944 -16.9405 -2
      vertex 13.0706 -17.189 -2
    endloop
  endfacet
  facet normal -0.587785 0.809017 0
    outer loop
      vertex 13.0706 -17.189 0
      vertex 13.0706 -17.189 -2
      vertex 12.8 -17.3856 0
    endloop
  endfacet
  facet normal -0.587785 0.809017 0
    outer loop
      vertex 12.8 -17.3856 0
      vertex 13.0706 -17.189 -2
      vertex 12.8 -17.3856 -2
    endloop
  endfacet
  facet normal -0.406737 0.913545 0
    outer loop
      vertex 12.8 -17.3856 0
      vertex 12.8 -17.3856 -2
      vertex 12.4944 -17.5217 0
    endloop
  endfacet
  facet normal -0.406737 0.913545 0
    outer loop
      vertex 12.4944 -17.5217 0
      vertex 12.8 -17.3856 -2
      vertex 12.4944 -17.5217 -2
    endloop
  endfacet
  facet normal -0.207912 0.978148 0
    outer loop
      vertex 12.4944 -17.5217 0
      vertex 12.4944 -17.5217 -2
      vertex 12.1672 -17.5912 0
    endloop
  endfacet
  facet normal -0.207912 0.978148 0
    outer loop
      vertex 12.1672 -17.5912 0
      vertex 12.4944 -17.5217 -2
      vertex 12.1672 -17.5912 -2
    endloop
  endfacet
  facet normal 0 1 0
    outer loop
      vertex 12.1672 -17.5912 0
      vertex 12.1672 -17.5912 -2
      vertex 11.8328 -17.5912 0
    endloop
  endfacet
  facet normal 0 1 0
    outer loop
      vertex 11.8328 -17.5912 0
      vertex 12.1672 -17.5912 -2
      vertex 11.8328 -17.5912 -2
    endloop
  endfacet
  facet normal 0.207912 0.978148 0
    outer loop
      vertex 11.8328 -17.5912 0
      vertex 11.8328 -17.5912 -2
      vertex 11.5056 -17.5217 0
    endloop
  endfacet
  facet normal 0.207912 0.978148 0
    outer loop
      vertex 11.5056 -17.5217 0
      vertex 11.8328 -17.5912 -2
      vertex 11.5056 -17.5217 -2
    endloop
  endfacet
  facet normal 0.406737 0.913545 0
    outer loop
      vertex 11.5056 -17.5217 0
      vertex 11.5056 -17.5217 -2
      vertex 11.2 -17.3856 0
    endloop
  endfacet
  facet normal 0.406737 0.913545 0
    outer loop
      vertex 11.2 -17.3856 0
      vertex 11.5056 -17.5217 -2
      vertex 11.2 -17.3856 -2
    endloop
  endfacet
  facet normal 0.587785 0.809017 0
    outer loop
      vertex 11.2 -17.3856 0
      vertex 11.2 -17.3856 -2
      vertex 10.9294 -17.189 0
    endloop
  endfacet
  facet normal 0.587785 0.809017 0
    outer loop
      vertex 10.9294 -17.189 0
      vertex 11.2 -17.3856 -2
      vertex 10.9294 -17.189 -2
    endloop
  endfacet
  facet normal 0.743145 0.669131 0
    outer loop
      vertex 10.7056 -16.9405 0
      vertex 10.9294 -17.189 0
      vertex 10.9294 -17.189 -2
    endloop
  endfacet
  facet normal 0.743145 0.669131 0
    outer loop
      vertex 10.7056 -16.9405 -2
      vertex 10.7056 -16.9405 0
      vertex 10.9294 -17.189 -2
    endloop
  endfacet
  facet normal 0.866025 0.5 0
    outer loop
      vertex 10.5383 -16.6508 0
      vertex 10.7056 -16.9405 0
      vertex 10.7056 -16.9405 -2
    endloop
  endfacet
  facet normal 0.866025 0.5 0
    outer loop
      vertex 10.5383 -16.6508 -2
      vertex 10.5383 -16.6508 0
      vertex 10.7056 -16.9405 -2
    endloop
  endfacet
  facet normal 0.951057 0.309017 0
    outer loop
      vertex 10.435 -16.3327 0
      vertex 10.5383 -16.6508 0
      vertex 10.5383 -16.6508 -2
    endloop
  endfacet
  facet normal 0.951057 0.309017 0
    outer loop
      vertex 10.435 -16.3327 -2
      vertex 10.435 -16.3327 0
      vertex 10.5383 -16.6508 -2
    endloop
  endfacet
  facet normal -1 0 0
    outer loop
      vertex -8 -21 0
      vertex -8 -21 4.5
      vertex -8 -11 0
    endloop
  endfacet
  facet normal -1 0 0
    outer loop
      vertex -8 -11 0
      vertex -8 -21 4.5
      vertex -8 -11 4.5
    endloop
  endfacet
  facet normal 0 0 1
    outer loop
      vertex -8 -11 4.5
      vertex -8 -21 4.5
      vertex 8 -21 4.5
    endloop
  endfacet
  facet normal 0 0 1
    outer loop
      vertex 8 -11 4.5
      vertex -8 -11 4.5
      vertex 8 -21 4.5
    endloop
  endfacet
  facet normal 1 0 0
    outer loop
      vertex 8 -21 4.5
      vertex 8 -21 0
      vertex 8 -11 0
    endloop
  endfacet
  facet normal 1 0 0
    outer loop
      vertex 8 -11 4.5
      vertex 8 -21 4.5
      vertex 8 -11 0
    endloop
  endfacet
  facet normal 0 0 1
    outer loop
      vertex 8 -11 0
      vertex 8 -21 0
      vertex 11 -21 0
    endloop
  endfacet
  facet normal 0 0 1
    outer loop
      vertex 11.4774 -20.9726 0
      vertex 8 -11 0
      vertex 11 -20.8711 0
    endloop
  endfacet
  facet normal 0 0 1
    outer loop
      vertex 11 -20.8711 0
      vertex 8 -11 0
      vertex 11 -21 0
    endloop
  endfacet
  facet normal 0 0 1
    outer loop
      vertex 10.5383 -16.6508 0
      vertex 8 -11 0
      vertex 11.4774 -20.9726 0
    endloop
  endfacet
  facet normal 0 0 1
    outer loop
      vertex 10.435 -15.6673 0
      vertex 10.5383 -15.3492 0
      vertex 8 -11 0
    endloop
  endfacet
  facet normal 0 0 1
    outer loop
      vertex 12.8 -17.3856 0
      vertex 12.4944 -17.5217 0
      vertex 14.5 -20.3301 0
    endloop
  endfacet
  facet normal 0 0 1
    outer loop
      vertex 13.2944 -16.9405 0
      vertex 13.0706 -17.189 0
      vertex 15.3457 -19.7157 0
    endloop
  endfacet
  facet normal 0 0 1
    outer loop
      vertex 17 -16 0
      vertex 8 -11 0
      vertex 16.8907 -17.0396 0
    endloop
  endfacet
  facet normal 0 0 1
    outer loop
      vertex 16.8907 -14.9604 0
      vertex 8 -11 0
      vertex 17 -16 0
    endloop
  endfacet
  facet normal 0 0 1
    outer loop
      vertex 16.5677 -13.9663 0
      vertex 8 -11 0
      vertex 16.8907 -14.9604 0
    endloop
  endfacet
  facet normal 0 0 1
    outer loop
      vertex 16.0451 -13.0611 0
      vertex 8 -11 0
      vertex 16.5677 -13.9663 0
    endloop
  endfacet
  facet normal 0 0 1
    outer loop
      vertex 15.3457 -12.2843 0
      vertex 8 -11 0
      vertex 16.0451 -13.0611 0
    endloop
  endfacet
  facet normal 0 0 1
    outer loop
      vertex 14.5 -11.6699 0
      vertex 8 -11 0
      vertex 15.3457 -12.2843 0
    endloop
  endfacet
  facet normal 0 0 1
    outer loop
      vertex 13.5451 -11.2447 0
      vertex 8 -11 0
      vertex 14.5 -11.6699 0
    endloop
  endfacet
  facet normal 0 0 1
    outer loop
      vertex 11 -11.1289 0
      vertex 8 -11 0
      vertex 13.5451 -11.2447 0
    endloop
  endfacet
  facet normal 0 0 1
    outer loop
      vertex 10.7056 -16.9405 0
      vertex 10.5383 -16.6508 0
      vertex 12.5226 -20.9726 0
    endloop
  endfacet
  facet normal 0 0 1
    outer loop
      vertex 12.5226 -11.0274 0
      vertex 11.4774 -11.0274 0
      vertex 13.5451 -11.2447 0
    endloop
  endfacet
  facet normal 0 0 1
    outer loop
      vertex 11.4774 -11.0274 0
      vertex 11 -11.1289 0
      vertex 13.5451 -11.2447 0
    endloop
  endfacet
  facet normal 0 0 1
    outer loop
      vertex 10.5383 -16.6508 0
      vertex 10.435 -16.3327 0
      vertex 8 -11 0
    endloop
  endfacet
  facet normal 0 0 1
    outer loop
      vertex 10.4 -16 0
      vertex 8 -11 0
      vertex 10.435 -16.3327 0
    endloop
  endfacet
  facet normal 0 0 1
    outer loop
      vertex 10.435 -15.6673 0
      vertex 8 -11 0
      vertex 10.4 -16 0
    endloop
  endfacet
  facet normal 0 0 1
    outer loop
      vertex 10.7056 -15.0595 0
      vertex 8 -11 0
      vertex 10.5383 -15.3492 0
    endloop
  endfacet
  facet normal 0 0 1
    outer loop
      vertex 11.5056 -14.4783 0
      vertex 11.8328 -14.4088 0
      vertex 8 -11 0
    endloop
  endfacet
  facet normal 0 0 1
    outer loop
      vertex 12.4944 -17.5217 0
      vertex 12.1672 -17.5912 0
      vertex 14.5 -20.3301 0
    endloop
  endfacet
  facet normal 0 0 1
    outer loop
      vertex 11.5056 -14.4783 0
      vertex 8 -11 0
      vertex 11.2 -14.6144 0
    endloop
  endfacet
  facet normal 0 0 1
    outer loop
      vertex 11.8328 -14.4088 0
      vertex 12.1672 -14.4088 0
      vertex 8 -11 0
    endloop
  endfacet
  facet normal 0 0 1
    outer loop
      vertex 13.0706 -14.811 0
      vertex 13.2944 -15.0595 0
      vertex 16.8907 -17.0396 0
    endloop
  endfacet
  facet normal 0 0 1
    outer loop
      vertex 13.565 -15.6673 0
      vertex 13.6 -16 0
      vertex 16.5677 -18.0337 0
    endloop
  endfacet
  facet normal 0 0 1
    outer loop
      vertex 12.4944 -14.4783 0
      vertex 8 -11 0
      vertex 12.1672 -14.4088 0
    endloop
  endfacet
  facet normal 0 0 1
    outer loop
      vertex 13.4617 -15.3492 0
      vertex 13.565 -15.6673 0
      vertex 16.5677 -18.0337 0
    endloop
  endfacet
  facet normal 0 0 1
    outer loop
      vertex 12.8 -14.6144 0
      vertex 8 -11 0
      vertex 12.4944 -14.4783 0
    endloop
  endfacet
  facet normal 0 0 1
    outer loop
      vertex 16.8907 -17.0396 0
      vertex 8 -11 0
      vertex 12.8 -14.6144 0
    endloop
  endfacet
  facet normal 0 0 1
    outer loop
      vertex 13.565 -16.3327 0
      vertex 13.4617 -16.6508 0
      vertex 16.0451 -18.9389 0
    endloop
  endfacet
  facet normal 0 0 1
    outer loop
      vertex 16.8907 -17.0396 0
      vertex 12.8 -14.6144 0
      vertex 13.0706 -14.811 0
    endloop
  endfacet
  facet normal 0 0 1
    outer loop
      vertex 16.8907 -17.0396 0
      vertex 13.2944 -15.0595 0
      vertex 16.5677 -18.0337 0
    endloop
  endfacet
  facet normal 0 0 1
    outer loop
      vertex 13.2944 -15.0595 0
      vertex 13.4617 -15.3492 0
      vertex 16.5677 -18.0337 0
    endloop
  endfacet
  facet normal 0 0 1
    outer loop
      vertex 13.6 -16 0
      vertex 13.565 -16.3327 0
      vertex 16.0451 -18.9389 0
    endloop
  endfacet
  facet normal 0 0 1
    outer loop
      vertex 16.5677 -18.0337 0
      vertex 13.6 -16 0
      vertex 16.0451 -18.9389 0
    endloop
  endfacet
  facet normal 0 0 1
    outer loop
      vertex 16.0451 -18.9389 0
      vertex 13.4617 -16.6508 0
      vertex 15.3457 -19.7157 0
    endloop
  endfacet
  facet normal 0 0 1
    outer loop
      vertex 13.4617 -16.6508 0
      vertex 13.2944 -16.9405 0
      vertex 15.3457 -19.7157 0
    endloop
  endfacet
  facet normal 0 0 1
    outer loop
      vertex 15.3457 -19.7157 0
      vertex 13.0706 -17.189 0
      vertex 14.5 -20.3301 0
    endloop
  endfacet
  facet normal 0 0 1
    outer loop
      vertex 13.0706 -17.189 0
      vertex 12.8 -17.3856 0
      vertex 14.5 -20.3301 0
    endloop
  endfacet
  facet normal 0 0 1
    outer loop
      vertex 11.8328 -17.5912 0
      vertex 11.5056 -17.5217 0
      vertex 13.5451 -20.7553 0
    endloop
  endfacet
  facet normal 0 0 1
    outer loop
      vertex 10.9294 -14.811 0
      vertex 11.2 -14.6144 0
      vertex 8 -11 0
    endloop
  endfacet
  facet normal 0 0 1
    outer loop
      vertex 14.5 -20.3301 0
      vertex 12.1672 -17.5912 0
      vertex 13.5451 -20.7553 0
    endloop
  endfacet
  facet normal 0 0 1
    outer loop
      vertex 12.1672 -17.5912 0
      vertex 11.8328 -17.5912 0
      vertex 13.5451 -20.7553 0
    endloop
  endfacet
  facet normal 0 0 1
    outer loop
      vertex 11.2 -17.3856 0
      vertex 10.9294 -17.189 0
      vertex 13.5451 -20.7553 0
    endloop
  endfacet
  facet normal 0 0 1
    outer loop
      vertex 10.9294 -17.189 0
      vertex 10.7056 -16.9405 0
      vertex 12.5226 -20.9726 0
    endloop
  endfacet
  facet normal 0 0 1
    outer loop
      vertex 13.5451 -20.7553 0
      vertex 10.9294 -17.189 0
      vertex 12.5226 -20.9726 0
    endloop
  endfacet
  facet normal 0 0 1
    outer loop
      vertex 11.5056 -17.5217 0
      vertex 11.2 -17.3856 0
      vertex 13.5451 -20.7553 0
    endloop
  endfacet
  facet normal 0 0 1
    outer loop
      vertex 12.5226 -20.9726 0
      vertex 10.5383 -16.6508 0
      vertex 11.4774 -20.9726 0
    endloop
  endfacet
  facet normal 0 0 1
    outer loop
      vertex 10.7056 -15.0595 0
      vertex 10.9294 -14.811 0
      vertex 8 -11 0
    endloop
  endfacet
  facet normal 0 0 1
    outer loop
      vertex 11 -11.1289 0
      vertex 11 -11 0
      vertex 8 -11 0
    endloop
  endfacet
  facet normal 1 0 0
    outer loop
      vertex -6 -11 0
      vertex -6 -11 2.5
      vertex -6 -21 2.5
    endloop
  endfacet
  facet normal 1 0 0
    outer loop
      vertex -6 -21 0
      vertex -6 -11 0
      vertex -6 -21 2.5
    endloop
  endfacet
  facet normal 0 0 1
    outer loop
      vertex 6 -21 0
      vertex 6 -11 0
      vertex -6 -11 0
    endloop
  endfacet
  facet normal 0 0 1
    outer loop
      vertex -6 -21 0
      vertex 6 -21 0
      vertex -6 -11 0
    endloop
  endfacet
  facet normal -1 0 0
    outer loop
      vertex 6 -11 2.5
      vertex 6 -11 0
      vertex 6 -21 2.5
    endloop
  endfacet
  facet normal -1 0 0
    outer loop
      vertex 6 -21 2.5
      vertex 6 -11 0
      vertex 6 -21 0
    endloop
  endfacet
  facet normal 0 0 -1
    outer loop
      vertex 6 -11 2.5
      vertex 6 -21 2.5
      vertex -6 -11 2.5
    endloop
  endfacet
  facet normal 0 0 -1
    outer loop
      vertex -6 -11 2.5
      vertex 6 -21 2.5
      vertex -6 -21 2.5
    endloop
  endfacet
endsolid OpenSCAD_Model
